HIERARCHY
ROOT mixamorig6:Hips
{
	OFFSET 0.000000 98.037537 0.000000
	CHANNELS 6 Xposition Yposition Zposition Xrotation Yrotation Zrotation
	JOINT mixamorig6:Spine
	{
		OFFSET 0.000000 10.236603 -0.985400
		CHANNELS 3 Xrotation Yrotation Zrotation
		JOINT mixamorig6:Spine1
		{
			OFFSET 0.000000 11.942696 -1.149615
			CHANNELS 3 Xrotation Yrotation Zrotation
			JOINT mixamorig6:Spine2
			{
				OFFSET 0.000000 13.648811 -1.313847
				CHANNELS 3 Xrotation Yrotation Zrotation
				JOINT mixamorig6:Neck
				{
					OFFSET 0.000000 15.354919 -1.478078
					CHANNELS 3 Xrotation Yrotation Zrotation
					JOINT mixamorig6:Head
					{
						OFFSET 0.000000 3.779800 1.345900
						CHANNELS 3 Xrotation Yrotation Zrotation
						JOINT mixamorig6:HeadTop_End
						{
							OFFSET 0.000000 25.046295 8.918200
							CHANNELS 3 Xrotation Yrotation Zrotation
							End Site
							{
								OFFSET 0.000000 26.586685 0.000000
							}
						}
					}
				}
				JOINT mixamorig6:LeftShoulder
				{
					OFFSET 6.191300 13.567673 -1.482547
					CHANNELS 3 Xrotation Yrotation Zrotation
					JOINT mixamorig6:LeftArm
					{
						OFFSET 12.653139 -3.421951 -0.008858
						CHANNELS 3 Xrotation Yrotation Zrotation
						JOINT mixamorig6:LeftForeArm
						{
							OFFSET 27.071707 0.000000 -0.000001
							CHANNELS 3 Xrotation Yrotation Zrotation
							JOINT mixamorig6:LeftHand
							{
								OFFSET 25.567696 0.000000 -0.000001
								CHANNELS 3 Xrotation Yrotation Zrotation
								JOINT mixamorig6:LeftHandThumb1
								{
									OFFSET 3.060722 -1.462875 2.317776
									CHANNELS 3 Xrotation Yrotation Zrotation
									JOINT mixamorig6:LeftHandThumb2
									{
										OFFSET 2.545944 -1.469894 1.469902
										CHANNELS 3 Xrotation Yrotation Zrotation
										JOINT mixamorig6:LeftHandThumb3
										{
											OFFSET 2.680428 -1.547546 1.547546
											CHANNELS 3 Xrotation Yrotation Zrotation
											JOINT mixamorig6:LeftHandThumb4
											{
												OFFSET 2.195984 -1.267853 1.267851
												CHANNELS 3 Xrotation Yrotation Zrotation
												End Site
												{
													OFFSET 1.887344 -1.224472 1.725070
												}
											}
										}
									}
								}
								JOINT mixamorig6:LeftHandIndex1
								{
									OFFSET 9.800262 -0.300766 2.394910
									CHANNELS 3 Xrotation Yrotation Zrotation
									JOINT mixamorig6:LeftHandIndex2
									{
										OFFSET 3.112297 0.000000 -0.000000
										CHANNELS 3 Xrotation Yrotation Zrotation
										JOINT mixamorig6:LeftHandIndex3
										{
											OFFSET 2.927002 0.000000 -0.000000
											CHANNELS 3 Xrotation Yrotation Zrotation
											JOINT mixamorig6:LeftHandIndex4
											{
												OFFSET 2.493301 0.000000 0.000000
												CHANNELS 3 Xrotation Yrotation Zrotation
												End Site
												{
													OFFSET 2.493301 0.000000 -0.001000
												}
											}
										}
									}
								}
								JOINT mixamorig6:LeftHandMiddle1
								{
									OFFSET 10.096680 0.000000 -0.000000
									CHANNELS 3 Xrotation Yrotation Zrotation
									JOINT mixamorig6:LeftHandMiddle2
									{
										OFFSET 3.179199 0.000000 0.000000
										CHANNELS 3 Xrotation Yrotation Zrotation
										JOINT mixamorig6:LeftHandMiddle3
										{
											OFFSET 3.130302 0.000000 0.000000
											CHANNELS 3 Xrotation Yrotation Zrotation
											JOINT mixamorig6:LeftHandMiddle4
											{
												OFFSET 2.641899 0.000000 0.000000
												CHANNELS 3 Xrotation Yrotation Zrotation
												End Site
												{
													OFFSET 2.641907 -0.000015 -0.001200
												}
											}
										}
									}
								}
								JOINT mixamorig6:LeftHandRing1
								{
									OFFSET 9.987442 -0.147278 -2.303933
									CHANNELS 3 Xrotation Yrotation Zrotation
									JOINT mixamorig6:LeftHandRing2
									{
										OFFSET 2.756905 0.000000 0.000000
										CHANNELS 3 Xrotation Yrotation Zrotation
										JOINT mixamorig6:LeftHandRing3
										{
											OFFSET 2.708405 0.000000 0.000000
											CHANNELS 3 Xrotation Yrotation Zrotation
											JOINT mixamorig6:LeftHandRing4
											{
												OFFSET 2.101418 0.000000 0.000000
												CHANNELS 3 Xrotation Yrotation Zrotation
												End Site
												{
													OFFSET 2.101402 -0.000137 -0.009199
												}
											}
										}
									}
								}
								JOINT mixamorig6:LeftHandPinky1
								{
									OFFSET 8.892174 -0.241959 -4.491873
									CHANNELS 3 Xrotation Yrotation Zrotation
									JOINT mixamorig6:LeftHandPinky2
									{
										OFFSET 2.615402 0.000000 0.000000
										CHANNELS 3 Xrotation Yrotation Zrotation
										JOINT mixamorig6:LeftHandPinky3
										{
											OFFSET 2.179611 0.000000 0.000000
											CHANNELS 3 Xrotation Yrotation Zrotation
											JOINT mixamorig6:LeftHandPinky4
											{
												OFFSET 1.785103 0.000000 0.000000
												CHANNELS 3 Xrotation Yrotation Zrotation
												End Site
												{
													OFFSET 1.785103 0.000137 0.004598
												}
											}
										}
									}
								}
							}
						}
					}
				}
				JOINT mixamorig6:RightShoulder
				{
					OFFSET -6.191300 13.567627 -1.473602
					CHANNELS 3 Xrotation Yrotation Zrotation
					JOINT mixamorig6:RightArm
					{
						OFFSET -12.653151 -3.421906 0.008869
						CHANNELS 3 Xrotation Yrotation Zrotation
						JOINT mixamorig6:RightForeArm
						{
							OFFSET -27.069597 0.000000 0.000001
							CHANNELS 3 Xrotation Yrotation Zrotation
							JOINT mixamorig6:RightHand
							{
								OFFSET -25.565407 0.000000 0.000001
								CHANNELS 3 Xrotation Yrotation Zrotation
								JOINT mixamorig6:RightHandThumb1
								{
									OFFSET -3.209328 -1.689423 2.514706
									CHANNELS 3 Xrotation Yrotation Zrotation
									JOINT mixamorig6:RightHandThumb2
									{
										OFFSET -2.734825 -1.578949 1.578950
										CHANNELS 3 Xrotation Yrotation Zrotation
										JOINT mixamorig6:RightHandThumb3
										{
											OFFSET -2.487328 -1.436066 1.436059
											CHANNELS 3 Xrotation Yrotation Zrotation
											JOINT mixamorig6:RightHandThumb4
											{
												OFFSET -1.930344 -1.114487 1.114487
												CHANNELS 3 Xrotation Yrotation Zrotation
												End Site
												{
													OFFSET -1.710335 -1.095474 1.443985
												}
											}
										}
									}
								}
								JOINT mixamorig6:RightHandIndex1
								{
									OFFSET -9.905579 -0.263855 2.371006
									CHANNELS 3 Xrotation Yrotation Zrotation
									JOINT mixamorig6:RightHandIndex2
									{
										OFFSET -3.114998 0.000000 0.000000
										CHANNELS 3 Xrotation Yrotation Zrotation
										JOINT mixamorig6:RightHandIndex3
										{
											OFFSET -2.926697 0.000000 0.000000
											CHANNELS 3 Xrotation Yrotation Zrotation
											JOINT mixamorig6:RightHandIndex4
											{
												OFFSET -2.405304 0.000000 0.000000
												CHANNELS 3 Xrotation Yrotation Zrotation
												End Site
												{
													OFFSET -2.405304 0.000015 -0.001500
												}
											}
										}
									}
								}
								JOINT mixamorig6:RightHandMiddle1
								{
									OFFSET -10.116516 0.000000 0.000000
									CHANNELS 3 Xrotation Yrotation Zrotation
									JOINT mixamorig6:RightHandMiddle2
									{
										OFFSET -3.238800 0.000000 0.000000
										CHANNELS 3 Xrotation Yrotation Zrotation
										JOINT mixamorig6:RightHandMiddle3
										{
											OFFSET -3.089897 0.000000 0.000000
											CHANNELS 3 Xrotation Yrotation Zrotation
											JOINT mixamorig6:RightHandMiddle4
											{
												OFFSET -2.640900 0.000000 0.000000
												CHANNELS 3 Xrotation Yrotation Zrotation
												End Site
												{
													OFFSET -2.640900 0.000000 0.000100
												}
											}
										}
									}
								}
								JOINT mixamorig6:RightHandRing1
								{
									OFFSET -10.100227 -0.043533 -2.288989
									CHANNELS 3 Xrotation Yrotation Zrotation
									JOINT mixamorig6:RightHandRing2
									{
										OFFSET -2.832199 0.000000 0.000000
										CHANNELS 3 Xrotation Yrotation Zrotation
										JOINT mixamorig6:RightHandRing3
										{
											OFFSET -2.645599 0.000000 0.000000
											CHANNELS 3 Xrotation Yrotation Zrotation
											JOINT mixamorig6:RightHandRing4
											{
												OFFSET -2.186401 0.000000 0.000000
												CHANNELS 3 Xrotation Yrotation Zrotation
												End Site
												{
													OFFSET -2.186401 -0.000015 -0.001400
												}
											}
										}
									}
								}
								JOINT mixamorig6:RightHandPinky1
								{
									OFFSET -8.769279 -0.239441 -4.443583
									CHANNELS 3 Xrotation Yrotation Zrotation
									JOINT mixamorig6:RightHandPinky2
									{
										OFFSET -2.635300 0.000000 0.000000
										CHANNELS 3 Xrotation Yrotation Zrotation
										JOINT mixamorig6:RightHandPinky3
										{
											OFFSET -2.200104 0.000000 0.000000
											CHANNELS 3 Xrotation Yrotation Zrotation
											JOINT mixamorig6:RightHandPinky4
											{
												OFFSET -1.875404 0.000000 0.000000
												CHANNELS 3 Xrotation Yrotation Zrotation
												End Site
												{
													OFFSET -1.875397 0.000015 0.002400
												}
											}
										}
									}
								}
							}
						}
					}
				}
			}
		}
	}
	JOINT mixamorig6:LeftUpLeg
	{
		OFFSET 9.149300 -5.691597 -0.209800
		CHANNELS 3 Xrotation Yrotation Zrotation
		JOINT mixamorig6:LeftLeg
		{
			OFFSET 0.367366 -40.775387 -3.165122
			CHANNELS 3 Xrotation Yrotation Zrotation
			JOINT mixamorig6:LeftFoot
			{
				OFFSET -0.367361 -38.890987 -2.495499
				CHANNELS 3 Xrotation Yrotation Zrotation
				JOINT mixamorig6:LeftToeBase
				{
					OFFSET 3.266852 -11.730358 15.127188
					CHANNELS 3 Xrotation Yrotation Zrotation
					JOINT mixamorig6:LeftToe_End
					{
						OFFSET 1.671803 -0.049743 6.701437
						CHANNELS 3 Xrotation Yrotation Zrotation
						End Site
						{
							OFFSET 1.671803 -0.049743 6.701437
						}
					}
				}
			}
		}
	}
	JOINT mixamorig6:RightUpLeg
	{
		OFFSET -9.149300 -5.691597 -0.455500
		CHANNELS 3 Xrotation Yrotation Zrotation
		JOINT mixamorig6:RightLeg
		{
			OFFSET -0.367382 -40.775345 -2.947703
			CHANNELS 3 Xrotation Yrotation Zrotation
			JOINT mixamorig6:RightFoot
			{
				OFFSET 0.367374 -38.890850 -2.831249
				CHANNELS 3 Xrotation Yrotation Zrotation
				JOINT mixamorig6:RightToeBase
				{
					OFFSET -3.266890 -11.731076 15.306957
					CHANNELS 3 Xrotation Yrotation Zrotation
					JOINT mixamorig6:RightToe_End
					{
						OFFSET -1.671815 -0.050072 7.010748
						CHANNELS 3 Xrotation Yrotation Zrotation
						End Site
						{
							OFFSET -1.671817 -0.050072 7.010748
						}
					}
				}
			}
		}
	}
}
MOTION
Frames: 4
Frame Time: 0.033333
0.046513 97.602341 0.168722 -3.753141 -5.228053 -3.389982 3.306140 1.531610 2.362627 1.151890 0.339458 1.552798 1.126014 0.361543 1.555885 5.626308 -0.078963 0.454684 5.621570 -0.099933 0.491952 0.000001 0.000000 0.000000 1.049442 -17.442073 -12.319422 3.916257 -19.989261 -69.765219 -0.000006 -1.459364 -0.000008 -33.230428 -1.364805 -6.186627 -0.662969 2.159783 4.837086 11.855272 25.422154 17.058184 -13.804205 3.534766 9.036042 0.000002 -0.000001 -0.000003 0.018896 -0.969458 -7.593470 0.267866 1.752899 -17.375704 0.057689 0.820964 -8.037999 -0.000000 0.000000 0.000001 -0.076301 2.665781 -15.696845 0.268758 1.755739 -17.404884 0.300520 1.853985 -18.413333 0.000000 -0.000000 0.000003 0.136909 3.641781 -21.133515 0.386624 2.094791 -20.911901 0.283046 1.800643 -17.865010 -0.000001 0.000000 0.000003 0.925272 5.557170 -27.127817 0.268825 1.755904 -17.406500 0.241927 1.667764 -16.506493 0.000000 -0.000001 0.000000 1.217898 15.347391 14.705903 13.158873 27.555123 58.785184 -0.000000 6.693737 -0.000004 -20.179087 -0.514089 6.782807 -1.665257 -0.174474 -4.219065 12.712981 -29.825496 -16.130552 -15.549426 -3.559427 -12.707155 0.000001 -0.000003 0.000003 0.038539 1.262299 6.823730 0.213749 -1.396038 17.407031 0.046014 -0.653842 8.053201 -0.000001 -0.000000 0.000001 -0.136239 -2.205101 14.998856 0.214458 -1.398351 17.436882 0.239775 -1.476527 18.446283 -0.000002 0.000001 -0.000000 0.030613 -3.075758 20.451022 0.308446 -1.668271 20.948537 0.225822 -1.434050 17.897082 0.000000 0.000000 -0.000001 0.748857 -4.885244 26.473747 0.214451 -1.398369 17.437246 0.193026 -1.328200 16.535815 0.000002 0.000001 -0.000001 -13.423566 14.163789 10.977425 13.755248 2.096891 4.215252 2.415407 0.439193 -7.469071 -4.928478 -0.000015 0.000009 -0.000000 -0.000002 -0.000000 -0.251174 -10.384685 3.020151 5.124317 -9.764292 -3.279126 -0.698666 -1.499272 2.662077 -7.282820 0.000010 -0.000008 0.000000 0.000002 0.000001 
0.050921 97.584503 0.313417 -3.670800 -5.174286 -3.342077 3.301545 1.526992 2.379248 1.128837 0.325903 1.571159 1.102869 0.347470 1.574226 5.748399 -0.097883 0.419658 5.743652 -0.119004 0.456968 -0.000000 -0.000000 -0.000000 1.065413 -17.390672 -12.218928 4.055682 -19.945076 -69.861661 0.000006 -1.475914 -0.000007 -33.208171 -1.315750 -6.207577 -0.706913 2.085529 4.823702 11.857513 25.422234 17.050980 -13.804118 3.529700 9.015255 0.000003 0.000004 0.000002 0.021403 -0.973884 -7.550614 0.267864 1.752895 -17.375725 0.057669 0.820958 -8.038013 -0.000001 0.000000 0.000002 -0.076701 2.657837 -15.621150 0.268752 1.755742 -17.404886 0.300537 1.853993 -18.413355 0.000000 0.000000 0.000002 0.134253 3.633020 -21.090198 0.386247 2.093794 -20.901497 0.282736 1.799694 -17.855322 -0.000001 -0.000000 0.000001 0.910956 5.530591 -27.067739 0.268812 1.755904 -17.406507 0.241930 1.667759 -16.506498 0.000000 0.000000 0.000002 1.133991 15.300549 15.076010 14.452248 27.951955 57.082712 -0.000006 8.453461 -0.000011 -21.625586 0.453063 5.771940 -1.417697 1.018677 -2.992303 12.745401 -29.834236 -16.036687 -15.866565 -3.760645 -13.972486 0.000003 -0.000007 0.000003 0.439185 -0.432142 10.839874 0.228535 -1.442393 18.004893 0.053071 -0.701899 8.649426 -0.000001 0.000000 0.000003 0.157565 -3.464387 22.201115 0.304110 -1.656895 20.798811 0.334117 -1.733824 21.813452 -0.000001 0.000001 -0.000001 0.111230 -3.553372 27.758932 0.491808 -2.084819 26.543102 0.387717 -1.862091 23.521483 -0.000000 0.000000 -0.000001 1.463234 -5.935542 33.233122 0.325266 -1.711567 21.519228 0.298898 -1.643095 20.617529 -0.000000 0.000004 0.000001 -13.540995 14.122452 10.951696 14.061242 2.082311 4.215329 2.098607 0.437806 -7.543421 -4.902239 0.000002 0.000014 0.000000 -0.000002 -0.000000 -0.473353 -10.356517 2.950231 5.590869 -9.902471 -3.329983 -1.026529 -1.503369 2.783482 -7.350452 0.000005 -0.000014 -0.000000 0.000004 0.000000 
0.048212 97.550308 0.451421 -3.527641 -5.095409 -3.272215 3.285502 1.505074 2.408739 1.094633 0.283280 1.600663 1.068439 0.303666 1.603363 5.965433 -0.130878 0.343446 5.960621 -0.152311 0.380839 0.000001 0.000000 -0.000000 1.091295 -17.298323 -12.053902 4.271292 -19.976357 -69.970609 0.000014 -1.616469 0.000009 -33.258168 -1.273258 -6.193823 -0.762308 1.951475 4.789461 11.872738 25.426450 17.001249 -13.801832 3.520456 8.994957 0.000003 0.000001 0.000000 0.030271 -0.989609 -7.398335 0.267875 1.752917 -17.375892 0.057684 0.820983 -8.038246 -0.000000 -0.000000 -0.000002 -0.083013 2.622769 -15.480972 0.268766 1.755744 -17.404893 0.300518 1.853985 -18.413338 -0.000001 -0.000000 0.000001 0.124307 3.602129 -20.977377 0.385442 2.091711 -20.879724 0.282111 1.797748 -17.835280 0.000000 -0.000000 0.000003 0.887292 5.495783 -26.955953 0.268791 1.755898 -17.406476 0.241945 1.667772 -16.506487 -0.000000 -0.000001 -0.000002 1.059791 15.142277 15.479669 15.796798 27.906428 54.727096 0.000002 11.660731 -0.000001 -23.660680 2.155344 4.009027 -1.143058 2.123996 -2.072370 12.717696 -29.794149 -16.124292 -15.934847 -3.895049 -14.889978 0.000003 -0.000006 -0.000000 0.955337 -1.891603 15.128862 0.247002 -1.497992 18.724373 0.062219 -0.759560 9.366258 -0.000001 -0.000000 -0.000001 0.557012 -4.400414 28.208707 0.413743 -1.920746 24.309946 0.448695 -1.996275 25.332746 -0.000000 0.000000 0.000001 1.000391 -5.121928 33.251461 0.648477 -2.372494 30.570455 0.530031 -2.159620 27.575504 0.000000 0.000001 -0.000000 1.953768 -6.391638 38.738726 0.424360 -1.944101 24.625287 0.394319 -1.877141 23.723344 -0.000000 -0.000001 -0.000000 -13.767121 14.087934 10.949825 14.433660 2.033079 4.198209 1.769198 0.434327 -7.731323 -4.884431 -0.000009 0.000012 -0.000000 -0.000001 -0.000000 -1.019886 -10.320056 2.834793 6.581837 -10.047304 -3.397318 -1.653320 -1.579276 2.954073 -7.445869 -0.000005 -0.000016 0.000001 0.000002 0.000000 
0.041016 97.512222 0.575465 -3.327918 -4.969090 -3.159475 3.260792 1.464747 2.449939 1.059386 0.207620 1.645473 1.032874 0.226257 1.647258 6.330401 -0.183411 0.200942 6.325460 -0.205348 0.238442 -0.000000 0.000000 0.000000 1.124074 -17.214237 -11.846661 4.608064 -20.074488 -70.044123 0.000004 -1.943850 -0.000013 -33.384578 -1.237912 -6.127180 -0.984526 1.779209 4.861917 11.895062 25.436852 16.927145 -13.794510 3.506170 8.967153 0.000003 0.000004 0.000003 0.032885 -1.017669 -7.279234 0.267271 1.750985 -17.356214 0.057396 0.818970 -8.018415 0.000000 0.000000 0.000002 -0.091086 2.581175 -15.345816 0.268765 1.755744 -17.404893 0.300524 1.853988 -18.413340 -0.000001 -0.000000 -0.000002 0.116333 3.576475 -20.871801 0.384790 2.089999 -20.861894 0.281590 1.796146 -17.818849 0.000000 0.000001 -0.000001 0.845842 5.446898 -26.876014 0.268767 1.755778 -17.405270 0.241882 1.667637 -16.505278 0.000000 -0.000000 -0.000001 1.010976 14.849518 15.761628 17.567895 28.310991 51.411500 -0.000012 16.574098 0.000018 -25.320886 4.278125 1.139430 -0.528676 2.258732 -1.521704 12.364224 -29.747308 -17.139924 -16.028815 -4.223241 -16.195017 0.000001 -0.000007 -0.000001 1.320942 -2.741757 19.296608 0.258281 -1.530841 19.151104 0.067981 -0.793683 9.791153 0.000001 0.000000 -0.000002 0.943698 -5.038374 33.013306 0.553103 -2.203227 28.181965 0.593381 -2.276727 29.212210 -0.000000 0.000001 0.000001 2.180653 -6.637694 37.372333 0.842472 -2.673531 34.975083 0.709541 -2.472872 32.015043 -0.000001 0.000000 -0.000001 2.313333 -6.637775 42.976011 0.534888 -2.168897 27.704239 0.501284 -2.103668 26.802050 -0.000001 -0.000001 0.000000 -14.045297 14.082191 10.947354 14.746513 1.917516 4.131003 1.543537 0.429337 -8.000562 -4.880480 -0.000004 0.000010 0.000000 0.000003 -0.000000 -1.703460 -10.264931 2.696503 7.713501 -10.050051 -3.489044 -2.364661 -1.877924 3.133281 -7.524406 -0.000009 -0.000011 -0.000001 0.000000 -0.000000 
